<mxfile host="app.diagrams.net" modified="2020-09-14T10:43:29.470Z" agent="5.0 (Windows NT 10.0; Win64; x64) AppleWebKit/537.36 (KHTML, like Gecko) Chrome/80.0.3987.87 Safari/537.36" etag="Zng9kwsQ6_xQOnNyBbbz" version="13.6.10" type="github">
  <diagram id="3NWhDmS3dMHGRNAWerwA" name="第 1 页">
    <mxGraphModel dx="1788" dy="1010" grid="1" gridSize="10" guides="1" tooltips="1" connect="1" arrows="1" fold="1" page="1" pageScale="1" pageWidth="827" pageHeight="1169" math="0" shadow="0">
      <root>
        <mxCell id="0" />
        <mxCell id="1" parent="0" />
        <mxCell id="ek9-Dc8PDsql-govBaU6-3" value="" style="edgeStyle=orthogonalEdgeStyle;rounded=0;orthogonalLoop=1;jettySize=auto;html=1;labelBackgroundColor=none;fontSize=14;" edge="1" parent="1" source="ek9-Dc8PDsql-govBaU6-1" target="ek9-Dc8PDsql-govBaU6-2">
          <mxGeometry relative="1" as="geometry" />
        </mxCell>
        <mxCell id="ek9-Dc8PDsql-govBaU6-1" value="&lt;font style=&quot;font-size: 14px;&quot;&gt;需求交流&lt;/font&gt;" style="ellipse;whiteSpace=wrap;html=1;labelBackgroundColor=none;fontSize=14;fillColor=#d5e8d4;strokeColor=#82b366;" vertex="1" parent="1">
          <mxGeometry x="130" y="385" width="90" height="70" as="geometry" />
        </mxCell>
        <mxCell id="ek9-Dc8PDsql-govBaU6-5" value="" style="edgeStyle=orthogonalEdgeStyle;rounded=0;orthogonalLoop=1;jettySize=auto;html=1;labelBackgroundColor=none;fontSize=14;" edge="1" parent="1" source="ek9-Dc8PDsql-govBaU6-2" target="ek9-Dc8PDsql-govBaU6-4">
          <mxGeometry relative="1" as="geometry" />
        </mxCell>
        <mxCell id="ek9-Dc8PDsql-govBaU6-2" value="&lt;font style=&quot;font-size: 14px&quot;&gt;预估外包人天工时&lt;/font&gt;" style="whiteSpace=wrap;html=1;labelBackgroundColor=none;fontSize=14;fillColor=#fff2cc;strokeColor=#d6b656;" vertex="1" parent="1">
          <mxGeometry x="270" y="390" width="120" height="60" as="geometry" />
        </mxCell>
        <mxCell id="ek9-Dc8PDsql-govBaU6-7" value="" style="edgeStyle=orthogonalEdgeStyle;rounded=0;orthogonalLoop=1;jettySize=auto;html=1;labelBackgroundColor=none;fontSize=14;" edge="1" parent="1" source="ek9-Dc8PDsql-govBaU6-4" target="ek9-Dc8PDsql-govBaU6-6">
          <mxGeometry relative="1" as="geometry" />
        </mxCell>
        <mxCell id="ek9-Dc8PDsql-govBaU6-4" value="&lt;font style=&quot;font-size: 14px&quot;&gt;签署合作协议&lt;/font&gt;" style="whiteSpace=wrap;html=1;labelBackgroundColor=none;fontSize=14;fillColor=#fff2cc;strokeColor=#d6b656;" vertex="1" parent="1">
          <mxGeometry x="440" y="390" width="120" height="60" as="geometry" />
        </mxCell>
        <mxCell id="ek9-Dc8PDsql-govBaU6-9" value="" style="edgeStyle=orthogonalEdgeStyle;rounded=0;orthogonalLoop=1;jettySize=auto;html=1;labelBackgroundColor=none;fontSize=14;" edge="1" parent="1" source="ek9-Dc8PDsql-govBaU6-6" target="ek9-Dc8PDsql-govBaU6-8">
          <mxGeometry relative="1" as="geometry" />
        </mxCell>
        <mxCell id="ek9-Dc8PDsql-govBaU6-6" value="&lt;font style=&quot;font-size: 14px&quot;&gt;甲方预付30%费用&lt;br&gt;乙方派遣团队驻场&lt;/font&gt;" style="whiteSpace=wrap;html=1;labelBackgroundColor=none;fontSize=14;fillColor=#f8cecc;strokeColor=#b85450;" vertex="1" parent="1">
          <mxGeometry x="620" y="390" width="120" height="60" as="geometry" />
        </mxCell>
        <mxCell id="ek9-Dc8PDsql-govBaU6-11" value="" style="edgeStyle=orthogonalEdgeStyle;rounded=0;orthogonalLoop=1;jettySize=auto;html=1;labelBackgroundColor=none;fontSize=14;" edge="1" parent="1" source="ek9-Dc8PDsql-govBaU6-8" target="ek9-Dc8PDsql-govBaU6-10">
          <mxGeometry relative="1" as="geometry" />
        </mxCell>
        <mxCell id="ek9-Dc8PDsql-govBaU6-13" value="" style="edgeStyle=orthogonalEdgeStyle;rounded=0;orthogonalLoop=1;jettySize=auto;html=1;labelBackgroundColor=none;fontSize=14;" edge="1" parent="1" source="ek9-Dc8PDsql-govBaU6-8" target="ek9-Dc8PDsql-govBaU6-12">
          <mxGeometry relative="1" as="geometry" />
        </mxCell>
        <mxCell id="ek9-Dc8PDsql-govBaU6-8" value="完成开发，离场&lt;br style=&quot;font-size: 14px&quot;&gt;甲方支付尾款" style="whiteSpace=wrap;html=1;labelBackgroundColor=none;fontSize=14;fillColor=#e1d5e7;strokeColor=#9673a6;" vertex="1" parent="1">
          <mxGeometry x="800" y="390" width="120" height="60" as="geometry" />
        </mxCell>
        <mxCell id="ek9-Dc8PDsql-govBaU6-10" value="结束" style="ellipse;whiteSpace=wrap;html=1;labelBackgroundColor=none;fontSize=14;fillColor=#e1d5e7;strokeColor=#9673a6;" vertex="1" parent="1">
          <mxGeometry x="980" y="385" width="90" height="70" as="geometry" />
        </mxCell>
        <mxCell id="ek9-Dc8PDsql-govBaU6-12" value="如果有需要延长&lt;br style=&quot;font-size: 14px;&quot;&gt;则签署补充协议" style="ellipse;shape=cloud;whiteSpace=wrap;html=1;labelBackgroundColor=none;fontSize=14;fillColor=#ffe6cc;strokeColor=#d79b00;" vertex="1" parent="1">
          <mxGeometry x="790" y="280" width="140" height="90" as="geometry" />
        </mxCell>
      </root>
    </mxGraphModel>
  </diagram>
</mxfile>
